<svg width="19" height="20" viewBox="0 0 19 20" fill="none" xmlns="http://www.w3.org/2000/svg">
<path d="M7.69253 14.0908H4.16677C3.82913 14.0908 3.51989 14.2798 3.36587 14.5803L1.77213 17.6894C1.46514 18.2883 1.90005 18.9999 2.57304 18.9999H16.4038C17.0768 18.9999 17.5117 18.2883 17.2047 17.6894L15.611 14.5803C15.4569 14.2798 15.1477 14.0908 14.8101 14.0908H11.2843" stroke="#2B3641" stroke-width="1.5" stroke-linecap="round" stroke-linejoin="round"/>
<path fill-rule="evenodd" clip-rule="evenodd" d="M15.3602 6.72727C15.3602 9.22727 12.4228 12.8468 10.7032 14.7514C10.0451 15.4804 8.93212 15.4804 8.27397 14.7514C6.5544 12.8468 3.61694 9.22727 3.61694 6.72727C3.61694 3.10273 6.65091 1 9.48859 1C12.3263 1 15.3602 3.10273 15.3602 6.72727Z" stroke="#2B3641" stroke-width="1.5" stroke-linecap="round" stroke-linejoin="round"/>
<path fill-rule="evenodd" clip-rule="evenodd" d="M7.8103 6.72718C7.8103 5.82309 8.56104 5.09082 9.48792 5.09082C10.4148 5.09082 11.1655 5.82309 11.1655 6.72718C11.1655 7.63127 10.4148 8.36355 9.48792 8.36355C8.56104 8.36355 7.8103 7.63127 7.8103 6.72718V6.72718Z" stroke="#2B3641" stroke-width="1.5" stroke-linecap="round" stroke-linejoin="round"/>
</svg>
